<svg width="50" height="50" viewBox="0 0 50 50" fill="none" xmlns="http://www.w3.org/2000/svg">
<rect width="50" height="50" rx="25" fill="white"/>
<path d="M24.999 20.377C23.7726 20.377 22.5965 20.8641 21.7293 21.7313C20.8622 22.5985 20.375 23.7746 20.375 25.001C20.375 26.2273 20.8622 27.4034 21.7293 28.2706C22.5965 29.1378 23.7726 29.625 24.999 29.625C26.2254 29.625 27.4015 29.1378 28.2687 28.2706C29.1358 27.4034 29.623 26.2273 29.623 25.001C29.623 23.7746 29.1358 22.5985 28.2687 21.7313C27.4015 20.8641 26.2254 20.377 24.999 20.377ZM24.999 28.004C24.2023 28.004 23.4382 27.6875 22.8749 27.1241C22.3115 26.5607 21.995 25.7967 21.995 25C21.995 24.2032 22.3115 23.4392 22.8749 22.8758C23.4382 22.3124 24.2023 21.996 24.999 21.996C25.7957 21.996 26.5598 22.3124 27.1231 22.8758C27.6865 23.4392 28.003 24.2032 28.003 25C28.003 25.7967 27.6865 26.5607 27.1231 27.1241C26.5598 27.6875 25.7957 28.004 24.999 28.004Z" fill="black"/>
<path d="M29.806 21.285C30.4014 21.285 30.884 20.8024 30.884 20.207C30.884 19.6117 30.4014 19.129 29.806 19.129C29.2107 19.129 28.728 19.6117 28.728 20.207C28.728 20.8024 29.2107 21.285 29.806 21.285Z" fill="black"/>
<path d="M33.533 19.111C33.3015 18.5132 32.9477 17.9703 32.4943 17.5171C32.0409 17.0638 31.4979 16.7103 30.9 16.479C30.2003 16.2164 29.4611 16.0743 28.714 16.059C27.751 16.017 27.446 16.005 25.004 16.005C22.562 16.005 22.249 16.005 21.294 16.059C20.5473 16.0736 19.8087 16.2156 19.11 16.479C18.5119 16.71 17.9687 17.0635 17.5153 17.5167C17.0619 17.97 16.7082 18.513 16.477 19.111C16.2143 19.8106 16.0726 20.5498 16.058 21.297C16.015 22.259 16.002 22.564 16.002 25.007C16.002 27.449 16.002 27.76 16.058 28.717C16.073 29.465 16.214 30.203 16.477 30.904C16.7088 31.5018 17.0628 32.0446 17.5164 32.4978C17.9699 32.951 18.513 33.3046 19.111 33.536C19.8084 33.8092 20.5473 33.9614 21.296 33.986C22.259 34.028 22.564 34.041 25.006 34.041C27.448 34.041 27.761 34.041 28.716 33.986C29.4631 33.9708 30.2022 33.8291 30.902 33.567C31.4997 33.3352 32.0426 32.9813 32.4959 32.528C32.9493 32.0746 33.3031 31.5318 33.535 30.934C33.798 30.234 33.939 29.496 33.954 28.748C33.997 27.786 34.01 27.481 34.01 25.038C34.01 22.595 34.01 22.285 33.954 21.328C33.9423 20.5703 33.7999 19.8203 33.533 19.111ZM32.315 28.643C32.3085 29.2193 32.2033 29.7902 32.004 30.331C31.8538 30.7199 31.6239 31.073 31.329 31.3677C31.0342 31.6624 30.6809 31.8921 30.292 32.042C29.7572 32.2405 29.1923 32.3456 28.622 32.353C27.672 32.397 27.404 32.408 24.968 32.408C22.53 32.408 22.281 32.408 21.313 32.353C20.7429 32.346 20.1783 32.2408 19.644 32.042C19.2536 31.893 18.899 31.6637 18.6028 31.369C18.3067 31.0742 18.0758 30.7206 17.925 30.331C17.7284 29.7961 17.6233 29.2318 17.614 28.662C17.571 27.712 17.561 27.444 17.561 25.008C17.561 22.571 17.561 22.322 17.614 21.353C17.6204 20.777 17.7256 20.2064 17.925 19.666C18.23 18.877 18.855 18.256 19.644 17.954C20.1785 17.7561 20.743 17.651 21.313 17.643C22.264 17.6 22.531 17.588 24.968 17.588C27.405 17.588 27.655 17.588 28.622 17.643C29.1924 17.6499 29.7573 17.7551 30.292 17.954C30.6809 18.1043 31.0341 18.3342 31.3289 18.629C31.6238 18.9239 31.8537 19.2771 32.004 19.666C32.2005 20.201 32.3056 20.7652 32.315 21.335C32.358 22.286 32.369 22.553 32.369 24.99C32.369 27.426 32.369 27.688 32.326 28.644H32.315V28.643Z" fill="black"/>
</svg>
