<svg width="17" height="16" viewBox="0 0 17 16" fill="none" xmlns="http://www.w3.org/2000/svg">
<g clip-path="url(#clip0_74_62)">
<path d="M14.9091 11.28V13.28C14.9099 13.4657 14.8719 13.6494 14.7975 13.8195C14.7231 13.9897 14.614 14.1424 14.4772 14.2679C14.3404 14.3934 14.1789 14.489 14.003 14.5485C13.8271 14.6079 13.6407 14.63 13.4558 14.6133C11.4044 14.3904 9.4338 13.6894 7.70247 12.5667C6.09169 11.5431 4.72603 10.1774 3.70247 8.56665C2.57579 6.82745 1.87463 4.84731 1.6558 2.78665C1.63914 2.60229 1.66105 2.41649 1.72014 2.24107C1.77922 2.06564 1.87418 1.90444 1.99898 1.76773C2.12378 1.63102 2.27567 1.52179 2.445 1.447C2.61432 1.37221 2.79736 1.33349 2.98247 1.33332H4.98247C5.30601 1.33013 5.61966 1.4447 5.86498 1.65567C6.11029 1.86664 6.27052 2.15961 6.3158 2.47998C6.40022 3.12003 6.55677 3.74847 6.78247 4.35332C6.87216 4.59193 6.89158 4.85126 6.83841 5.10057C6.78524 5.34988 6.66171 5.57872 6.48247 5.75998L5.6358 6.60665C6.58484 8.27568 7.96677 9.65761 9.6358 10.6067L10.4825 9.75998C10.6637 9.58074 10.8926 9.45722 11.1419 9.40405C11.3912 9.35088 11.6505 9.37029 11.8891 9.45998C12.494 9.68568 13.1224 9.84224 13.7625 9.92665C14.0863 9.97234 14.3821 10.1355 14.5935 10.385C14.8049 10.6345 14.9172 10.953 14.9091 11.28Z" stroke="#5B5B5B" stroke-width="2" stroke-linecap="round" stroke-linejoin="round"/>
</g>
<defs>
<clipPath id="clip0_74_62">
<rect width="16" height="16" fill="white" transform="translate(0.242676)"/>
</clipPath>
</defs>
</svg>
