<svg width="50" height="50" viewBox="0 0 50 50" fill="none" xmlns="http://www.w3.org/2000/svg">
<rect width="50" height="50" rx="25" fill="white"/>
<path d="M32.5899 19.69C31.5931 19.4708 30.6913 18.9414 30.014 18.1779C29.3367 17.4143 28.9186 16.4559 28.8199 15.44V15H25.3699V28.67C25.3706 29.2766 25.1804 29.868 24.8263 30.3604C24.4722 30.8529 23.9722 31.2215 23.397 31.414C22.8218 31.6065 22.2006 31.6131 21.6214 31.4329C21.0422 31.2527 20.5344 30.8948 20.1699 30.41C19.8433 29.9808 19.6434 29.4689 19.5926 28.932C19.5419 28.3951 19.6423 27.8548 19.8827 27.372C20.123 26.8892 20.4936 26.4834 20.9526 26.2003C21.4116 25.9172 21.9406 25.7681 22.4799 25.77C22.7781 25.7683 23.0749 25.8121 23.3599 25.9V22.4C23.0282 22.3589 22.694 22.3422 22.3599 22.35C21.1292 22.3829 19.9348 22.7739 18.923 23.4753C17.9112 24.1766 17.1258 25.1578 16.6631 26.2986C16.2004 27.4395 16.0804 28.6905 16.3178 29.8986C16.5553 31.1066 17.1398 32.2191 17.9999 33.1C18.8814 33.9962 20.0094 34.6101 21.2406 34.8638C22.4718 35.1175 23.7506 34.9994 24.9146 34.5246C26.0785 34.0498 27.075 33.2397 27.7775 32.1973C28.48 31.1548 28.8568 29.9271 28.8599 28.67V21.67C30.2514 22.6639 31.9199 23.1956 33.6299 23.19V19.79C33.294 19.7914 32.9589 19.7579 32.6299 19.69H32.5899Z" fill="black"/>
</svg>
